solid OpenSCAD_Model
  facet normal 1 -0 0
    outer loop
      vertex 80 0 35
      vertex 80 40 0
      vertex 80 40 35
    endloop
  endfacet
  facet normal 1 0 0
    outer loop
      vertex 80 40 0
      vertex 80 0 35
      vertex 80 0 0
    endloop
  endfacet
  facet normal 0 0 1
    outer loop
      vertex 80 40 35
      vertex 78.4 38.4 35
      vertex 80 0 35
    endloop
  endfacet
  facet normal 0 0 1
    outer loop
      vertex 80 40 35
      vertex 40.8 38.4 35
      vertex 78.4 38.4 35
    endloop
  endfacet
  facet normal 0 0 1
    outer loop
      vertex 40.8 38.4 35
      vertex 39.2 38.4 35
      vertex 40.8 1.6 35
    endloop
  endfacet
  facet normal 0 0 1
    outer loop
      vertex 80 40 35
      vertex 39.2 38.4 35
      vertex 40.8 38.4 35
    endloop
  endfacet
  facet normal -0 0 1
    outer loop
      vertex 0 40 35
      vertex 39.2 38.4 35
      vertex 80 40 35
    endloop
  endfacet
  facet normal 0 0 1
    outer loop
      vertex 1.6 38.4 35
      vertex 0 40 35
      vertex 1.6 1.6 35
    endloop
  endfacet
  facet normal 0 0 1
    outer loop
      vertex 39.2 38.4 35
      vertex 0 40 35
      vertex 1.6 38.4 35
    endloop
  endfacet
  facet normal -0 0 1
    outer loop
      vertex 78.4 1.6 35
      vertex 80 0 35
      vertex 78.4 38.4 35
    endloop
  endfacet
  facet normal -0 0 1
    outer loop
      vertex 40.8 1.6 35
      vertex 80 0 35
      vertex 78.4 1.6 35
    endloop
  endfacet
  facet normal 0 0 1
    outer loop
      vertex 39.2 1.6 35
      vertex 40.8 1.6 35
      vertex 39.2 38.4 35
    endloop
  endfacet
  facet normal -0 0 1
    outer loop
      vertex 39.2 1.6 35
      vertex 80 0 35
      vertex 40.8 1.6 35
    endloop
  endfacet
  facet normal 0 0 1
    outer loop
      vertex 0 0 35
      vertex 39.2 1.6 35
      vertex 1.6 1.6 35
    endloop
  endfacet
  facet normal 0 0 1
    outer loop
      vertex 39.2 1.6 35
      vertex 0 0 35
      vertex 80 0 35
    endloop
  endfacet
  facet normal 0 0 1
    outer loop
      vertex 0 0 35
      vertex 1.6 1.6 35
      vertex 0 40 35
    endloop
  endfacet
  facet normal 0 0 -1
    outer loop
      vertex 0 0 0
      vertex 80 40 0
      vertex 80 0 0
    endloop
  endfacet
  facet normal -0 0 -1
    outer loop
      vertex 80 40 0
      vertex 0 0 0
      vertex 0 40 0
    endloop
  endfacet
  facet normal -1 0 0
    outer loop
      vertex 0 0 0
      vertex 0 40 35
      vertex 0 40 0
    endloop
  endfacet
  facet normal -1 -0 0
    outer loop
      vertex 0 40 35
      vertex 0 0 0
      vertex 0 0 35
    endloop
  endfacet
  facet normal 0 1 -0
    outer loop
      vertex 80 40 0
      vertex 0 40 35
      vertex 80 40 35
    endloop
  endfacet
  facet normal 0 1 0
    outer loop
      vertex 0 40 35
      vertex 80 40 0
      vertex 0 40 0
    endloop
  endfacet
  facet normal 0 -1 0
    outer loop
      vertex 0 0 0
      vertex 80 0 35
      vertex 0 0 35
    endloop
  endfacet
  facet normal 0 -1 -0
    outer loop
      vertex 80 0 35
      vertex 0 0 0
      vertex 80 0 0
    endloop
  endfacet
  facet normal -1 0 0
    outer loop
      vertex 39.2 1.6 1.2
      vertex 39.2 38.4 35
      vertex 39.2 38.4 1.2
    endloop
  endfacet
  facet normal -1 -0 0
    outer loop
      vertex 39.2 38.4 35
      vertex 39.2 1.6 1.2
      vertex 39.2 1.6 35
    endloop
  endfacet
  facet normal -0 0 1
    outer loop
      vertex 1.6 38.4 1.2
      vertex 39.2 1.6 1.2
      vertex 39.2 38.4 1.2
    endloop
  endfacet
  facet normal 0 0 1
    outer loop
      vertex 39.2 1.6 1.2
      vertex 1.6 38.4 1.2
      vertex 1.6 1.6 1.2
    endloop
  endfacet
  facet normal 1 -0 0
    outer loop
      vertex 1.6 1.6 35
      vertex 1.6 38.4 1.2
      vertex 1.6 38.4 35
    endloop
  endfacet
  facet normal 1 0 0
    outer loop
      vertex 1.6 38.4 1.2
      vertex 1.6 1.6 35
      vertex 1.6 1.6 1.2
    endloop
  endfacet
  facet normal 0 -1 0
    outer loop
      vertex 1.6 38.4 1.2
      vertex 39.2 38.4 35
      vertex 1.6 38.4 35
    endloop
  endfacet
  facet normal 0 -1 -0
    outer loop
      vertex 39.2 38.4 35
      vertex 1.6 38.4 1.2
      vertex 39.2 38.4 1.2
    endloop
  endfacet
  facet normal 0 1 -0
    outer loop
      vertex 39.2 1.6 1.2
      vertex 1.6 1.6 35
      vertex 39.2 1.6 35
    endloop
  endfacet
  facet normal 0 1 0
    outer loop
      vertex 1.6 1.6 35
      vertex 39.2 1.6 1.2
      vertex 1.6 1.6 1.2
    endloop
  endfacet
  facet normal -1 0 0
    outer loop
      vertex 78.4 1.6 1.2
      vertex 78.4 38.4 35
      vertex 78.4 38.4 1.2
    endloop
  endfacet
  facet normal -1 -0 0
    outer loop
      vertex 78.4 38.4 35
      vertex 78.4 1.6 1.2
      vertex 78.4 1.6 35
    endloop
  endfacet
  facet normal -0 0 1
    outer loop
      vertex 40.8 38.4 1.2
      vertex 78.4 1.6 1.2
      vertex 78.4 38.4 1.2
    endloop
  endfacet
  facet normal 0 0 1
    outer loop
      vertex 78.4 1.6 1.2
      vertex 40.8 38.4 1.2
      vertex 40.8 1.6 1.2
    endloop
  endfacet
  facet normal 1 -0 0
    outer loop
      vertex 40.8 1.6 35
      vertex 40.8 38.4 1.2
      vertex 40.8 38.4 35
    endloop
  endfacet
  facet normal 1 0 0
    outer loop
      vertex 40.8 38.4 1.2
      vertex 40.8 1.6 35
      vertex 40.8 1.6 1.2
    endloop
  endfacet
  facet normal 0 -1 0
    outer loop
      vertex 40.8 38.4 1.2
      vertex 78.4 38.4 35
      vertex 40.8 38.4 35
    endloop
  endfacet
  facet normal 0 -1 -0
    outer loop
      vertex 78.4 38.4 35
      vertex 40.8 38.4 1.2
      vertex 78.4 38.4 1.2
    endloop
  endfacet
  facet normal 0 1 -0
    outer loop
      vertex 78.4 1.6 1.2
      vertex 40.8 1.6 35
      vertex 78.4 1.6 35
    endloop
  endfacet
  facet normal 0 1 0
    outer loop
      vertex 40.8 1.6 35
      vertex 78.4 1.6 1.2
      vertex 40.8 1.6 1.2
    endloop
  endfacet
endsolid OpenSCAD_Model
