solid OpenSCAD_Model
  facet normal 1 -0 0
    outer loop
      vertex 40 0 25
      vertex 40 40 0
      vertex 40 40 25
    endloop
  endfacet
  facet normal 1 0 0
    outer loop
      vertex 40 40 0
      vertex 40 0 25
      vertex 40 0 0
    endloop
  endfacet
  facet normal 0 0 1
    outer loop
      vertex 40 40 25
      vertex 38.4 38.4 25
      vertex 40 0 25
    endloop
  endfacet
  facet normal 0 0 1
    outer loop
      vertex 40 40 25
      vertex 1.6 38.4 25
      vertex 38.4 38.4 25
    endloop
  endfacet
  facet normal 0 0 1
    outer loop
      vertex 1.6 38.4 25
      vertex 0 40 25
      vertex 1.6 1.6 25
    endloop
  endfacet
  facet normal -0 0 1
    outer loop
      vertex 0 40 25
      vertex 1.6 38.4 25
      vertex 40 40 25
    endloop
  endfacet
  facet normal -0 0 1
    outer loop
      vertex 38.4 1.6 25
      vertex 40 0 25
      vertex 38.4 38.4 25
    endloop
  endfacet
  facet normal -0 0 1
    outer loop
      vertex 1.6 1.6 25
      vertex 40 0 25
      vertex 38.4 1.6 25
    endloop
  endfacet
  facet normal 0 0 1
    outer loop
      vertex 1.6 1.6 25
      vertex 0 0 25
      vertex 40 0 25
    endloop
  endfacet
  facet normal 0 0 1
    outer loop
      vertex 0 0 25
      vertex 1.6 1.6 25
      vertex 0 40 25
    endloop
  endfacet
  facet normal 0 0 -1
    outer loop
      vertex 0 0 0
      vertex 40 40 0
      vertex 40 0 0
    endloop
  endfacet
  facet normal -0 0 -1
    outer loop
      vertex 40 40 0
      vertex 0 0 0
      vertex 0 40 0
    endloop
  endfacet
  facet normal -1 0 0
    outer loop
      vertex 0 0 0
      vertex 0 40 25
      vertex 0 40 0
    endloop
  endfacet
  facet normal -1 -0 0
    outer loop
      vertex 0 40 25
      vertex 0 0 0
      vertex 0 0 25
    endloop
  endfacet
  facet normal 0 1 -0
    outer loop
      vertex 40 40 0
      vertex 0 40 25
      vertex 40 40 25
    endloop
  endfacet
  facet normal 0 1 0
    outer loop
      vertex 0 40 25
      vertex 40 40 0
      vertex 0 40 0
    endloop
  endfacet
  facet normal 0 -1 0
    outer loop
      vertex 0 0 0
      vertex 40 0 25
      vertex 0 0 25
    endloop
  endfacet
  facet normal 0 -1 -0
    outer loop
      vertex 40 0 25
      vertex 0 0 0
      vertex 40 0 0
    endloop
  endfacet
  facet normal -1 0 0
    outer loop
      vertex 38.4 1.6 1.2
      vertex 38.4 38.4 25
      vertex 38.4 38.4 1.2
    endloop
  endfacet
  facet normal -1 -0 0
    outer loop
      vertex 38.4 38.4 25
      vertex 38.4 1.6 1.2
      vertex 38.4 1.6 25
    endloop
  endfacet
  facet normal -0 0 1
    outer loop
      vertex 1.6 38.4 1.2
      vertex 38.4 1.6 1.2
      vertex 38.4 38.4 1.2
    endloop
  endfacet
  facet normal 0 0 1
    outer loop
      vertex 38.4 1.6 1.2
      vertex 1.6 38.4 1.2
      vertex 1.6 1.6 1.2
    endloop
  endfacet
  facet normal 1 -0 0
    outer loop
      vertex 1.6 1.6 25
      vertex 1.6 38.4 1.2
      vertex 1.6 38.4 25
    endloop
  endfacet
  facet normal 1 0 0
    outer loop
      vertex 1.6 38.4 1.2
      vertex 1.6 1.6 25
      vertex 1.6 1.6 1.2
    endloop
  endfacet
  facet normal 0 -1 0
    outer loop
      vertex 1.6 38.4 1.2
      vertex 38.4 38.4 25
      vertex 1.6 38.4 25
    endloop
  endfacet
  facet normal 0 -1 -0
    outer loop
      vertex 38.4 38.4 25
      vertex 1.6 38.4 1.2
      vertex 38.4 38.4 1.2
    endloop
  endfacet
  facet normal 0 1 -0
    outer loop
      vertex 38.4 1.6 1.2
      vertex 1.6 1.6 25
      vertex 38.4 1.6 25
    endloop
  endfacet
  facet normal 0 1 0
    outer loop
      vertex 1.6 1.6 25
      vertex 38.4 1.6 1.2
      vertex 1.6 1.6 1.2
    endloop
  endfacet
endsolid OpenSCAD_Model
